<svg width="200" height="256" viewBox="0 0 200 256" fill="none" xmlns="http://www.w3.org/2000/svg">
<path d="M80.0095 1.75134C53.0603 7.54681 30.9056 22.615 16.5217 44.6378C-8.7743 83.7158 -4.80631 131.901 26.9376 166.011C60.0042 201.778 113.407 208.401 153.087 181.576C158.377 178.099 163.172 175.615 163.833 175.947C164.66 176.443 165.156 189.856 165.156 205.752C165.156 227.443 165.817 235.888 167.471 239.2C173.753 251.122 191.94 260.064 197.892 254.103C200.703 251.288 200.703 10.8585 197.892 8.04356C191.94 2.08252 176.895 8.87149 167.967 21.6215C165.983 24.4365 165.156 24.1053 153.583 16.654C131.759 2.57927 102.825 -3.21619 80.0095 1.75134ZM126.303 41.6573C151.599 54.0761 166.975 83.2191 161.849 109.547C157.716 130.907 144.489 147.632 124.153 157.235C103.983 166.674 79.6789 164.024 61.4922 150.115C43.8016 136.703 35.3696 119.813 35.7003 97.9561C35.8656 71.7937 50.7456 50.1021 75.5455 39.6703C83.6469 36.3586 87.1189 35.8618 100.676 36.193C114.233 36.6897 117.871 37.5177 126.303 41.6573Z" fill="url(#paint0_linear_1758_752)"/>
<defs>
<linearGradient id="paint0_linear_1758_752" x1="100" y1="256" x2="100" y2="0" gradientUnits="userSpaceOnUse">
<stop stop-color="#0038FF"/>
<stop offset="1" stop-color="#5CE2FF"/>
</linearGradient>
</defs>
</svg>
