<svg width="107" height="35" viewBox="0 0 107 35" fill="none" xmlns="http://www.w3.org/2000/svg">
<path d="M51.2082 0.409095C50.1206 0.998997 49.586 2.1788 49.8994 3.26644C50.4893 5.23892 52.7568 5.86569 54.2131 4.46468C55.5773 3.15583 55.0427 0.888391 53.1992 0.187881C52.4434 -0.10707 52.1115 -0.0702012 51.2082 0.409095Z" fill="url(#paint0_linear_1800_1248)"/>
<path d="M8.92098 6.69458C5.91617 7.33978 3.44595 9.01732 1.84215 11.4691C-0.978326 15.8197 -0.535898 21.1841 3.00352 24.9816C6.69041 28.9635 12.6447 29.7008 17.069 26.7144C17.6589 26.3273 18.1935 26.0508 18.2673 26.0877C18.3594 26.143 18.4147 27.6362 18.4147 29.4059C18.4147 31.8208 18.4885 32.761 18.6728 33.1297C19.3733 34.4569 21.4011 35.4524 22.0648 34.7888C22.3781 34.4754 22.3781 7.70847 22.0648 7.39509C21.4011 6.73145 19.7236 7.48726 18.7281 8.90672C18.5069 9.2201 18.4147 9.18324 17.1243 8.35368C14.691 6.78675 11.4649 6.14154 8.92098 6.69458ZM14.0826 11.1373C16.9031 12.5199 18.6175 15.7644 18.046 18.6954C17.5852 21.0735 16.1104 22.9354 13.843 24.0046C11.594 25.0553 8.88412 24.7604 6.85632 23.2119C4.88384 21.7187 3.94368 19.8384 3.98055 17.405C3.99898 14.4924 5.65808 12.0775 8.42325 10.9161C9.32654 10.5474 9.71367 10.4921 11.2253 10.529C12.7369 10.5843 13.1425 10.6764 14.0826 11.1373Z" fill="url(#paint1_linear_1800_1248)"/>
<path d="M69.1602 6.64303C67.7408 6.88268 66.266 7.49102 64.9203 8.3943C64.2567 8.83673 63.6668 9.20542 63.593 9.20542C63.5377 9.18699 63.3165 8.9289 63.1137 8.59708C62.6713 7.87814 61.2887 7.14076 60.5329 7.2145L59.9799 7.2698V21.0956V34.9215L60.7541 34.903C61.8049 34.8846 62.9478 34.1104 63.4087 33.1149C63.7036 32.4513 63.7589 31.8798 63.7589 29.1515C63.7589 27.4187 63.7958 25.9808 63.8327 25.9808C63.8511 25.9808 64.441 26.3495 65.1046 26.7919C66.9297 27.9901 68.5888 28.451 70.9484 28.4694C73.2158 28.4694 74.1744 28.2482 76.2022 27.1974C78.8015 25.8702 80.8846 23.3078 81.6772 20.4689C82.1012 18.9388 82.1197 16.2289 81.7141 14.6805C80.3315 9.31603 74.709 5.72131 69.1602 6.64303ZM74.1007 11.1779C75.5754 11.8969 76.8658 13.2241 77.5479 14.6989C77.9719 15.6022 78.0457 15.9893 78.0457 17.5009C78.0457 19.0863 77.9903 19.3628 77.4557 20.4873C76.829 21.833 75.5754 23.1972 74.4694 23.7502C73.4739 24.2664 71.907 24.6904 71.0221 24.6904C69.9529 24.6904 68.1832 24.1189 67.0587 23.3815C63.5193 21.1141 62.9109 15.9524 65.8052 12.8001C67.3537 11.1226 68.9021 10.4774 71.2249 10.5327C72.6812 10.588 73.0499 10.6617 74.1007 11.1779Z" fill="url(#paint2_linear_1800_1248)"/>
<path d="M93.6625 6.63759C89.5332 7.26436 85.9938 10.3613 84.7402 14.4538C84.1319 16.3894 84.1872 18.9518 84.8508 20.9059C86.0307 24.3531 88.6483 26.9339 92.1509 28.1137C93.6809 28.6299 96.9991 28.593 98.6398 28.04C100.041 27.5791 101.423 26.8049 102.622 25.8279C103.636 24.9983 105.092 22.9705 104.944 22.6018C104.668 21.8645 102.308 21.422 101.35 21.9382C101.11 22.0488 100.446 22.5281 99.8749 22.9705C97.4969 24.8324 94.6764 25.1274 92.0771 23.8185C90.8789 23.2102 89.4779 21.7723 88.9249 20.5925L88.464 19.6155L97.3678 19.5233C102.253 19.468 106.272 19.4127 106.308 19.3758C106.474 19.2283 106.29 15.7626 106.05 14.8409C104.649 9.43963 99.1744 5.80804 93.6625 6.63759ZM97.7734 10.8775C99.5615 11.5412 101.552 13.5136 102.013 15.0437L102.124 15.4677H95.3953C90.0678 15.4677 88.6483 15.4124 88.6483 15.228C88.6483 14.8041 89.4595 13.4583 90.1784 12.7025C90.9526 11.9098 92.1509 11.1356 93.2201 10.7485C94.3077 10.3613 96.5751 10.4351 97.7734 10.8775Z" fill="url(#paint3_linear_1800_1248)"/>
<path d="M27.7219 7.60162C27.6482 7.84126 27.6298 11.141 27.6666 14.9385C27.7404 21.0957 27.7772 21.9252 28.0722 22.7548C29.4732 26.497 33.0864 28.8013 37.0498 28.5063C38.6167 28.3773 39.6859 28.027 40.8657 27.2343L41.64 26.6997L42.2483 27.1606C42.9119 27.6583 44.1102 28.0455 44.5157 27.8795C44.6632 27.8242 44.8291 27.603 44.866 27.3818C44.9213 27.179 44.9397 22.6073 44.9213 17.2428C44.866 6.40337 44.9397 6.99328 43.6309 7.25136C42.6907 7.41727 41.8243 8.08091 41.3819 8.9289C41.0132 9.61097 40.9948 10.035 40.9026 15.5653C40.792 22.1095 40.8288 21.9621 39.4831 23.2341C38.4508 24.2295 37.6581 24.5613 36.3861 24.5798C34.4136 24.5798 32.6808 23.4921 31.8881 21.7593C31.6485 21.2063 31.5932 20.0633 31.501 15.1966C31.4088 9.85062 31.372 9.24228 31.0586 8.72612C30.2475 7.39884 27.9616 6.62459 27.7219 7.60162Z" fill="url(#paint4_linear_1800_1248)"/>
<path d="M50.6231 7.28381C50.5493 7.35755 50.494 11.9662 50.494 17.5149C50.494 25.2759 50.5493 27.6539 50.7152 27.7461C51.047 27.9489 51.9135 27.8567 52.5034 27.5433C53.2592 27.1562 54.144 26.0685 54.273 25.3865C54.3283 25.0546 54.3468 20.8331 54.3283 16.0217L54.273 7.26537L52.5218 7.21007C51.5448 7.19164 50.6968 7.21007 50.6231 7.28381Z" fill="url(#paint5_linear_1800_1248)"/>
<defs>
<linearGradient id="paint0_linear_1800_1248" x1="52.3943" y1="5.22156" x2="52.3943" y2="1.57356e-05" gradientUnits="userSpaceOnUse">
<stop stop-color="#0038FF"/>
<stop offset="1" stop-color="#5CE2FF"/>
</linearGradient>
<linearGradient id="paint1_linear_1800_1248" x1="11.1499" y1="35" x2="11.1499" y2="6.4996" gradientUnits="userSpaceOnUse">
<stop stop-color="#0038FF"/>
<stop offset="1" stop-color="#5CE2FF"/>
</linearGradient>
<linearGradient id="paint2_linear_1800_1248" x1="70.9935" y1="34.9215" x2="70.9935" y2="6.49889" gradientUnits="userSpaceOnUse">
<stop stop-color="#0038FF"/>
<stop offset="1" stop-color="#5CE2FF"/>
</linearGradient>
<linearGradient id="paint3_linear_1800_1248" x1="95.3443" y1="28.4789" x2="95.3443" y2="6.51964" gradientUnits="userSpaceOnUse">
<stop stop-color="#0038FF"/>
<stop offset="1" stop-color="#5CE2FF"/>
</linearGradient>
<linearGradient id="paint4_linear_1800_1248" x1="36.2882" y1="28.5316" x2="36.2882" y2="7.14833" gradientUnits="userSpaceOnUse">
<stop stop-color="#0038FF"/>
<stop offset="1" stop-color="#5CE2FF"/>
</linearGradient>
<linearGradient id="paint5_linear_1800_1248" x1="52.4146" y1="27.8538" x2="52.4146" y2="7.20342" gradientUnits="userSpaceOnUse">
<stop stop-color="#0038FF"/>
<stop offset="1" stop-color="#5CE2FF"/>
</linearGradient>
</defs>
</svg>
