<svg width="365" height="105" viewBox="0 0 365 105" fill="none" xmlns="http://www.w3.org/2000/svg">
<g filter="url(#filter0_d_2_9)">
<path d="M231.733 11.8765C229.402 13.1406 228.257 15.6687 228.928 17.9994C230.192 22.2261 235.051 23.5692 238.172 20.567C241.095 17.7624 239.95 12.9036 235.999 11.4025C234.38 10.7705 233.669 10.8495 231.733 11.8765Z" fill="url(#paint0_linear_2_9)"/>
<path d="M141.116 25.346C134.677 26.7286 129.384 30.3233 125.947 35.5771C119.904 44.8997 120.852 56.3948 128.436 64.5323C136.337 73.0648 149.096 74.6449 158.576 68.2455C159.84 67.416 160.986 66.8234 161.144 66.9024C161.341 67.0209 161.46 70.2206 161.46 74.0128C161.46 79.1876 161.618 81.2023 162.013 81.9923C163.514 84.8365 167.859 86.9696 169.281 85.5475C169.953 84.876 169.953 27.5187 169.281 26.8471C167.859 25.425 164.265 27.0446 162.131 30.0863C161.657 30.7578 161.46 30.6788 158.695 28.9012C153.48 25.5435 146.568 24.161 141.116 25.346ZM152.177 34.8661C158.221 37.8288 161.894 44.7812 160.67 51.062C159.682 56.1578 156.522 60.1475 151.663 62.4387C146.844 64.6903 141.037 64.0583 136.692 60.7401C132.465 57.5404 130.451 53.5112 130.53 48.2969C130.569 42.0555 134.124 36.8807 140.05 34.3921C141.985 33.602 142.815 33.4835 146.054 33.5625C149.293 33.681 150.162 33.8785 152.177 34.8661Z" fill="url(#paint1_linear_2_9)"/>
<path d="M270.197 25.2361C267.155 25.7497 263.995 27.0532 261.111 28.9888C259.689 29.9369 258.425 30.7269 258.267 30.7269C258.148 30.6874 257.674 30.1344 257.24 29.4234C256.292 27.8828 253.329 26.3027 251.71 26.4607L250.525 26.5792V56.2058V85.8325L252.184 85.793C254.435 85.7535 256.884 84.0944 257.872 81.9612C258.504 80.5392 258.622 79.3146 258.622 73.4683C258.622 69.7551 258.701 66.6739 258.781 66.6739C258.82 66.6739 260.084 67.464 261.506 68.412C265.417 70.9796 268.972 71.9672 274.028 72.0067C278.887 72.0067 280.941 71.5327 285.287 69.2811C290.856 66.4369 295.32 60.9461 297.019 54.8628C297.927 51.5841 297.967 45.7773 297.098 42.4591C294.135 30.964 282.087 23.261 270.197 25.2361ZM280.783 34.9537C283.943 36.4943 286.709 39.3384 288.17 42.4986C289.079 44.4342 289.237 45.2637 289.237 48.5029C289.237 51.9001 289.118 52.4926 287.973 54.9023C286.63 57.7859 283.943 60.7091 281.573 61.8941C279.44 63.0002 276.082 63.9088 274.186 63.9088C271.895 63.9088 268.103 62.6842 265.693 61.1041C258.109 56.2453 256.805 45.1847 263.007 38.4299C266.325 34.8352 269.644 33.4526 274.621 33.5711C277.742 33.6896 278.532 33.8476 280.783 34.9537Z" fill="url(#paint2_linear_2_9)"/>
<path d="M322.706 25.2224C313.858 26.5655 306.274 33.2019 303.587 41.9714C302.284 46.1191 302.402 51.6099 303.824 55.7972C306.353 63.1841 311.962 68.7144 319.467 71.2426C322.746 72.3486 329.856 72.2696 333.372 71.0845C336.374 70.097 339.337 68.4379 341.904 66.3443C344.077 64.5667 347.198 60.2214 346.882 59.4314C346.289 57.8513 341.233 56.9032 339.179 58.0093C338.665 58.2463 337.243 59.2734 336.019 60.2214C330.923 64.2111 324.879 64.8432 319.309 62.0385C316.742 60.7349 313.739 57.6538 312.554 55.1256L311.567 53.032L330.646 52.8345C341.114 52.716 349.726 52.5975 349.805 52.5185C350.16 52.2025 349.765 44.776 349.252 42.8009C346.25 31.2267 334.517 23.4448 322.706 25.2224ZM331.515 34.3079C335.347 35.73 339.613 39.9567 340.601 43.2354L340.838 44.144H326.42C315.003 44.144 311.962 44.0255 311.962 43.6305C311.962 42.7219 313.7 39.8382 315.24 38.2186C316.9 36.52 319.467 34.861 321.758 34.0314C324.089 33.2019 328.948 33.3599 331.515 34.3079Z" fill="url(#paint3_linear_2_9)"/>
<path d="M181.405 27.2903C181.247 27.8038 181.208 34.8747 181.287 43.0122C181.445 56.206 181.524 57.9836 182.156 59.7612C185.158 67.7801 192.901 72.7179 201.394 72.0859C204.751 71.8094 207.042 71.0588 209.571 69.3602L211.23 68.2147L212.533 69.2022C213.955 70.2688 216.523 71.0983 217.392 70.7428C217.708 70.6243 218.064 70.1503 218.143 69.6762C218.261 69.2417 218.301 59.4452 218.261 47.95C218.143 24.7227 218.301 25.9867 215.496 26.5398C213.481 26.8953 211.625 28.3174 210.677 30.1345C209.887 31.5961 209.847 32.5046 209.65 44.3553C209.413 58.3786 209.492 58.0626 206.608 60.7882C204.396 62.9214 202.697 63.6324 199.971 63.6719C195.745 63.6719 192.032 61.3413 190.333 57.6281C189.819 56.443 189.701 53.9938 189.503 43.5652C189.306 32.1096 189.227 30.806 188.555 29.6999C186.817 26.8558 181.919 25.1967 181.405 27.2903Z" fill="url(#paint4_linear_2_9)"/>
<path d="M230.48 26.6101C230.322 26.7681 230.203 36.6437 230.203 48.5338C230.203 65.1643 230.322 70.2601 230.677 70.4576C231.388 70.8921 233.245 70.6946 234.509 70.0231C236.128 69.1935 238.024 66.8629 238.301 65.4013C238.42 64.6903 238.459 55.6442 238.42 45.3342L238.301 26.5706L234.548 26.4521C232.455 26.4126 230.638 26.4521 230.48 26.6101Z" fill="url(#paint5_linear_2_9)"/>
</g>
<path d="M97.291 31.9427C96.0174 23.919 92.5961 18.2622 87.1195 15.1306C80.625 11.417 73.1516 10.6694 66.5597 10.012L65.235 9.8756C51.5496 8.41695 38.149 8.77978 24.2493 10.9714C21.6145 11.3878 18.164 12.0234 14.84 13.2531C10.788 14.7556 7.74405 16.8181 5.53782 19.5625C1.53934 24.5326 1.01335 31.0636 0.594505 36.3089L0.516587 37.2294C0.0660884 42.6914 -0.0897631 47.681 0.0490392 52.4903C0.114788 54.7672 0.204887 57.2121 0.404568 59.6569C0.840456 64.9363 1.80477 71.7278 5.42093 77.4187C9.41698 83.7062 15.5803 85.0894 20.5041 85.5886C23.0732 85.8492 57.4158 86.0635 73.8432 85.6495L91.3517 99.313C92.0068 99.8219 92.8006 100.087 93.5993 100.087C94.1278 100.087 94.6586 99.9729 95.153 99.7416C96.3973 99.1571 97.2082 97.9201 97.2496 96.5467C97.3178 94.321 98.8763 41.9462 97.291 31.9427Z" fill="url(#paint6_linear_2_9)"/>
<path d="M46.3084 27.557C41.7834 28.5286 38.0635 31.0548 35.6483 34.747C31.4009 41.2986 32.0672 49.3769 37.3972 55.0957C42.9494 61.092 51.9161 62.2024 58.5787 57.7052C59.467 57.1222 60.2721 56.7058 60.3831 56.7613C60.5219 56.8446 60.6052 59.0932 60.6052 61.7582C60.6052 65.3949 60.7162 66.8107 60.9939 67.3659C62.0488 69.3647 65.1024 70.8638 66.1018 69.8644C66.5738 69.3925 66.5738 29.0838 66.1018 28.6119C65.1024 27.6125 62.5762 28.7507 61.0771 30.8883C60.744 31.3602 60.6052 31.3047 58.662 30.0554C54.9975 27.6958 50.1394 26.7241 46.3084 27.557ZM54.0814 34.2473C58.3288 36.3294 60.9106 41.2153 60.05 45.6292C59.356 49.2104 57.1351 52.0142 53.7205 53.6243C50.3337 55.2067 46.2529 54.7625 43.1992 52.4306C40.2288 50.182 38.813 47.3504 38.8686 43.686C38.8963 39.2998 41.3948 35.6631 45.5589 33.9142C46.9192 33.359 47.5021 33.2757 49.7785 33.3312C52.0549 33.4145 52.6656 33.5533 54.0814 34.2473Z" fill="white"/>
<defs>
<filter id="filter0_d_2_9" x="107" y="-6.10352e-05" width="257.941" height="105" filterUnits="userSpaceOnUse" color-interpolation-filters="sRGB">
<feFlood flood-opacity="0" result="BackgroundImageFix"/>
<feColorMatrix in="SourceAlpha" type="matrix" values="0 0 0 0 0 0 0 0 0 0 0 0 0 0 0 0 0 0 127 0" result="hardAlpha"/>
<feOffset dy="4"/>
<feGaussianBlur stdDeviation="7.5"/>
<feComposite in2="hardAlpha" operator="out"/>
<feColorMatrix type="matrix" values="0 0 0 0 0 0 0 0 0 0 0 0 0 0 0 0 0 0 0.15 0"/>
<feBlend mode="normal" in2="BackgroundImageFix" result="effect1_dropShadow_2_9"/>
<feBlend mode="normal" in="SourceGraphic" in2="effect1_dropShadow_2_9" result="shape"/>
</filter>
<linearGradient id="paint0_linear_2_9" x1="234.275" y1="22.1889" x2="234.275" y2="10.9999" gradientUnits="userSpaceOnUse">
<stop stop-color="#0038FF"/>
<stop offset="1" stop-color="#5CE2FF"/>
</linearGradient>
<linearGradient id="paint1_linear_2_9" x1="145.893" y1="86.0002" x2="145.893" y2="24.9282" gradientUnits="userSpaceOnUse">
<stop stop-color="#0038FF"/>
<stop offset="1" stop-color="#5CE2FF"/>
</linearGradient>
<linearGradient id="paint2_linear_2_9" x1="274.125" y1="85.8325" x2="274.125" y2="24.9273" gradientUnits="userSpaceOnUse">
<stop stop-color="#0038FF"/>
<stop offset="1" stop-color="#5CE2FF"/>
</linearGradient>
<linearGradient id="paint3_linear_2_9" x1="326.31" y1="72.025" x2="326.31" y2="24.9696" gradientUnits="userSpaceOnUse">
<stop stop-color="#0038FF"/>
<stop offset="1" stop-color="#5CE2FF"/>
</linearGradient>
<linearGradient id="paint4_linear_2_9" x1="199.762" y1="72.1401" x2="199.762" y2="26.319" gradientUnits="userSpaceOnUse">
<stop stop-color="#0038FF"/>
<stop offset="1" stop-color="#5CE2FF"/>
</linearGradient>
<linearGradient id="paint5_linear_2_9" x1="234.319" y1="70.6885" x2="234.319" y2="26.4378" gradientUnits="userSpaceOnUse">
<stop stop-color="#0038FF"/>
<stop offset="1" stop-color="#5CE2FF"/>
</linearGradient>
<linearGradient id="paint6_linear_2_9" x1="49" y1="100.087" x2="49" y2="9" gradientUnits="userSpaceOnUse">
<stop stop-color="#0038FF"/>
<stop offset="1" stop-color="#5CE2FF"/>
</linearGradient>
</defs>
</svg>
