<svg width="144" height="144" viewBox="0 0 128 128" fill="none" xmlns="http://www.w3.org/2000/svg">
<g transform="translate(15, 18)">
<path d="M97.291 22.9427C96.0174 14.919 92.5961 9.26216 87.1195 6.13058C80.625 2.41701 73.1516 1.66943 66.5597 1.01194L65.235 0.87558C51.5496 -0.583062 38.149 -0.220237 24.2493 1.97138C21.6145 2.38779 18.164 3.02336 14.84 4.2531C10.788 5.75557 7.74405 7.81813 5.53782 10.5625C1.53934 15.5326 1.01335 22.0636 0.594505 27.3089L0.516587 28.2294C0.0660884 33.6914 -0.0897631 38.6809 0.0490392 43.4903C0.114788 45.7672 0.204887 48.212 0.404568 50.6569C0.840456 55.9363 1.80477 62.7278 5.42093 68.4187C9.41698 74.7062 15.5803 76.0894 20.5041 76.5886C23.0732 76.8491 57.4158 77.0634 73.8432 76.6495L91.3517 90.313C92.0068 90.8219 92.8006 91.0873 93.5993 91.0873C94.1278 91.0873 94.6586 90.9729 95.153 90.7416C96.3973 90.1571 97.2082 88.9201 97.2496 87.5467C97.3178 85.321 98.8763 32.9462 97.291 22.9427Z" fill="url(#paint0_linear_1515_28)"/>
<path d="M46.3085 18.557C41.7835 19.5286 38.0635 22.0548 35.6484 25.747C31.401 32.2986 32.0672 40.3769 37.3973 46.0957C42.9494 52.092 51.9161 53.2024 58.5787 48.7052C59.467 48.1222 60.2721 47.7058 60.3831 47.7613C60.522 47.8446 60.6052 50.0932 60.6052 52.7582C60.6052 56.3949 60.7163 57.8107 60.9939 58.3659C62.0488 60.3647 65.1025 61.8638 66.1019 60.8644C66.5738 60.3925 66.5738 20.0838 66.1019 19.6119C65.1025 18.6125 62.5762 19.7507 61.0772 21.8883C60.744 22.3602 60.6052 22.3047 58.662 21.0554C54.9976 18.6958 50.1394 17.7241 46.3085 18.557ZM54.0815 25.2473C58.3289 27.3294 60.9106 32.2153 60.05 36.6292C59.356 40.2104 57.1351 43.0142 53.7206 44.6243C50.3338 46.2067 46.2529 45.7625 43.1993 43.4306C40.2289 41.182 38.8131 38.3504 38.8686 34.686C38.8964 30.2998 41.3948 26.6631 45.5589 24.9142C46.9192 24.359 47.5022 24.2757 49.7786 24.3312C52.0549 24.4145 52.6657 24.5533 54.0815 25.2473Z" fill="white"/>
</g>
<defs>
<linearGradient id="paint0_linear_1515_28" x1="49" y1="91.0873" x2="49" y2="-1.52588e-05" gradientUnits="userSpaceOnUse">
<stop stop-color="#0038FF"/>
<stop offset="1" stop-color="#5CE2FF"/>
</linearGradient>
</defs>
</svg>
